<svg width="907" height="372" xmlns="http://www.w3.org/2000/svg" xmlns:xlink="http://www.w3.org/1999/xlink" overflow="hidden" style="background-color: black">
    <defs>
        <filter id="fx0" x="-10%" y="-10%" width="120%" height="120%" filterUnits="userSpaceOnUse" primitiveUnits="userSpaceOnUse">
            <feComponentTransfer color-interpolation-filters="sRGB">
                <feFuncR type="discrete" tableValues="0 0" />
                <feFuncG type="discrete" tableValues="0 0" />
                <feFuncB type="discrete" tableValues="0 0" />
                <feFuncA type="linear" slope="0.4" intercept="0" />
            </feComponentTransfer>
            <feGaussianBlur stdDeviation="1.77778 1.77778" />
        </filter>
        <clipPath id="clip1">
            <rect x="33" y="246" width="907" height="372" />
        </clipPath>
        <clipPath id="clip2">
            <rect x="27" y="23" width="717" height="178" />
        </clipPath>
        <clipPath id="clip3">
            <rect x="0" y="0" width="770" height="232" />
        </clipPath>
    </defs>
    <g clip-path="url(#clip1)" transform="translate(-33 -246)">
        <g clip-path="url(#clip2)" filter="url(#fx0)" transform="translate(41 313)">
            <g clip-path="url(#clip3)">
                <path d="M19.2744-1.97363 16.9858 0.335938 2.87646-11.4429 16.9858-23.2217 19.2744-20.8911 7.83154-11.4849Z" fill="#808080" transform="translate(32.8058 60)" />
                <path d="M16.9019 0 16.8179-2.83447C15.6701-1.70068 14.5048-0.881836 13.322-0.37793 12.1392 0.125977 10.897 0.37793 9.59521 0.37793 8.39144 0.37793 7.36263 0.223958 6.50879-0.0839844 5.65495-0.391927 4.95158-0.815348 4.39868-1.35425 3.84578-1.89315 3.43986-2.52653 3.18091-3.25439 2.92196-3.98226 2.79248-4.77311 2.79248-5.62695 2.79248-7.74056 3.57983-9.39575 5.15454-10.5925 6.72925-11.7893 9.05631-12.3877 12.1357-12.3877L16.5029-12.3877 16.5029-14.2354C16.5029-15.4811 16.104-16.4784 15.3062-17.2273 14.5083-17.9762 13.2905-18.3506 11.6528-18.3506 10.4631-18.3506 9.29077-18.2176 8.13599-17.9517 6.9812-17.6857 5.78792-17.3078 4.55615-16.8179L4.55615-20.1143C5.01807-20.2822 5.53247-20.4467 6.09937-20.6077 6.66626-20.7686 7.26465-20.9121 7.89453-21.0381 8.52441-21.1641 9.18229-21.2655 9.86816-21.3425 10.554-21.4195 11.2469-21.458 11.9468-21.458 13.2205-21.458 14.3683-21.318 15.3901-21.0381 16.4119-20.7581 17.2763-20.3312 17.9832-19.7573 18.69-19.1834 19.2324-18.4626 19.6104-17.5947 19.9883-16.7269 20.1772-15.7051 20.1772-14.5293L20.1772 0ZM16.5029-9.59521 11.8628-9.59521C10.953-9.59521 10.1691-9.50423 9.51123-9.32227 8.85335-9.1403 8.31445-8.88135 7.89453-8.54541 7.47461-8.20947 7.16317-7.80705 6.96021-7.33813 6.75724-6.86922 6.65576-6.34082 6.65576-5.75293 6.65576-5.347 6.71875-4.95858 6.84473-4.58765 6.9707-4.21672 7.17367-3.88778 7.45361-3.60083 7.73356-3.31388 8.09749-3.08643 8.54541-2.91846 8.99333-2.75049 9.53922-2.6665 10.1831-2.6665 11.0229-2.6665 11.9853-2.92196 13.0701-3.43286 14.1549-3.94377 15.2992-4.75212 16.5029-5.85791Z" fill="#569CD6" transform="translate(56.3058 60)" />
                <path d="M20.3032 0 16.6499 0 16.6499-13.4585C16.6499-15.0822 16.3455-16.2965 15.7366-17.1013 15.1277-17.9062 14.2563-18.3086 13.1226-18.3086 12.6326-18.3086 12.1742-18.2421 11.7473-18.1091 11.3204-17.9762 10.876-17.7452 10.4141-17.4163 9.95215-17.0873 9.44824-16.6429 8.90234-16.083 8.35645-15.5231 7.72656-14.8232 7.0127-13.9834L7.0127 0 3.35938 0 3.35938-29.6675 7.0127-29.6675 7.0127-21.0801 6.88672-17.7627C7.46061-18.4486 8.02401-19.026 8.5769-19.4949 9.1298-19.9638 9.6827-20.3452 10.2356-20.6392 10.7885-20.9331 11.3519-21.1431 11.9258-21.269 12.4997-21.395 13.0946-21.458 13.7104-21.458 15.8101-21.458 17.4338-20.8176 18.5815-19.5369 19.7293-18.2561 20.3032-16.328 20.3032-13.7524ZM27.7202-21.0801 31.0586-21.0801 31.1636-17.1958C32.4093-18.6935 33.6376-19.7783 34.8484-20.4502 36.0592-21.1221 37.2804-21.458 38.5122-21.458 40.6958-21.458 42.351-20.7511 43.4778-19.3374 44.6046-17.9237 45.126-15.8241 45.042-13.0386L41.3467-13.0386C41.3887-14.8862 41.1192-16.2265 40.5383-17.0593 39.9574-17.8922 39.1071-18.3086 37.9873-18.3086 37.4974-18.3086 37.004-18.2211 36.5071-18.0461 36.0102-17.8712 35.4993-17.5912 34.9744-17.2063 34.4495-16.8214 33.8931-16.328 33.3052-15.7261 32.7173-15.1242 32.0874-14.3963 31.4155-13.5425L31.4155 0 27.7202 0ZM68.1641-11.6528C68.1641-11.1349 68.1571-10.701 68.1431-10.3511 68.1291-10.0011 68.1081-9.6722 68.0801-9.36426L53.2778-9.36426C53.2778-7.20866 53.8797-5.55347 55.0835-4.39868 56.2873-3.2439 58.0229-2.6665 60.2905-2.6665 60.9064-2.6665 61.5223-2.691 62.1382-2.73999 62.7541-2.78898 63.349-2.85547 63.9229-2.93945 64.4967-3.02344 65.0461-3.11792 65.571-3.2229 66.0959-3.32788 66.5824-3.44336 67.0303-3.56934L67.0303-0.566895C66.0365-0.286947 64.9132-0.0594889 63.6604 0.115479 62.4076 0.290446 61.1094 0.37793 59.7656 0.37793 57.96 0.37793 56.4062 0.132975 55.1045-0.356934 53.8027-0.846842 52.7354-1.55721 51.9026-2.48804 51.0697-3.41886 50.4539-4.55965 50.0549-5.9104 49.656-7.26115 49.4565-8.79036 49.4565-10.498 49.4565-11.9818 49.67-13.385 50.0969-14.7078 50.5238-16.0305 51.1467-17.1923 51.9656-18.1931 52.7844-19.1939 53.7887-19.9883 54.9785-20.5762 56.1683-21.1641 57.519-21.458 59.0308-21.458 60.5005-21.458 61.8022-21.2271 62.936-20.7651 64.0698-20.3032 65.0251-19.6488 65.802-18.802 66.5789-17.9552 67.1667-16.9263 67.5657-15.7156 67.9646-14.5048 68.1641-13.1506 68.1641-11.6528ZM64.3638-12.1777C64.4058-13.1156 64.3148-13.9729 64.0908-14.7498 63.8669-15.5266 63.5204-16.195 63.0515-16.7549 62.5826-17.3148 61.9982-17.7522 61.2983-18.0671 60.5985-18.3821 59.7866-18.5396 58.8628-18.5396 58.0649-18.5396 57.3371-18.3856 56.6792-18.0776 56.0213-17.7697 55.4544-17.3358 54.9785-16.7759 54.5026-16.216 54.1177-15.5441 53.8237-14.7603 53.5298-13.9764 53.3478-13.1156 53.2778-12.1777ZM92.5669-26.2661C90.6492-26.672 88.9976-26.875 87.6118-26.875 84.3224-26.875 82.6777-25.1533 82.6777-21.71L82.6777-18.0146 91.916-18.0146 91.916-14.9702 82.6777-14.9702 82.6777 0 78.9614 0 78.9614-14.9702 72.1797-14.9702 72.1797-18.0146 78.9614-18.0146 78.9614-21.5C78.9614-27.113 81.8869-29.9194 87.7378-29.9194 89.1935-29.9194 90.8032-29.7515 92.5669-29.4155Z" fill="#9CDCFE" transform="translate(103.306 60)" />
                <path d="M20.8491-13.5635 2.79248-13.5635 2.79248-16.6499 20.8491-16.6499ZM20.8491-6.25684 2.79248-6.25684 2.79248-9.34326 20.8491-9.34326Z" fill="#D4D4D4" transform="translate(197.306 60)" />
                <path d="M10.0571-29.6675 9.46924-19.8203 6.02588-19.8203 5.41699-29.6675ZM18.2246-29.6675 17.6367-19.8203 14.1934-19.8203 13.5845-29.6675ZM43.8032 0 40.1499 0 40.1499-13.4585C40.1499-15.0822 39.8455-16.2965 39.2366-17.1013 38.6277-17.9062 37.7563-18.3086 36.6226-18.3086 36.1326-18.3086 35.6742-18.2421 35.2473-18.1091 34.8204-17.9762 34.376-17.7452 33.9141-17.4163 33.4521-17.0873 32.9482-16.6429 32.4023-16.083 31.8564-15.5231 31.2266-14.8232 30.5127-13.9834L30.5127 0 26.8594 0 26.8594-29.6675 30.5127-29.6675 30.5127-21.0801 30.3867-17.7627C30.9606-18.4486 31.524-19.026 32.0769-19.4949 32.6298-19.9638 33.1827-20.3452 33.7356-20.6392 34.2885-20.9331 34.8519-21.1431 35.4258-21.269 35.9997-21.395 36.5946-21.458 37.2104-21.458 39.3101-21.458 40.9338-20.8176 42.0815-19.5369 43.2293-18.2561 43.8032-16.328 43.8032-13.7524ZM67.3452-0.293945C66.5194-0.0839844 65.6655 0.0664876 64.7837 0.157471 63.9019 0.248454 63.006 0.293945 62.0962 0.293945 59.4507 0.293945 57.477-0.304443 56.1753-1.50122 54.8735-2.698 54.2227-4.53516 54.2227-7.0127L54.2227-18.0146 48.3228-18.0146 48.3228-21.0801 54.2227-21.0801 54.2227-26.875 57.876-27.8198 57.876-21.0801 67.3452-21.0801 67.3452-18.0146 57.876-18.0146 57.876-7.30664C57.876-5.79492 58.2784-4.66463 59.0833-3.91577 59.8881-3.16691 61.0744-2.79248 62.6421-2.79248 63.314-2.79248 64.0488-2.84497 64.8467-2.94995 65.6445-3.05493 66.4774-3.2194 67.3452-3.44336ZM90.8452-0.293945C90.0194-0.0839844 89.1655 0.0664876 88.2837 0.157471 87.4019 0.248454 86.506 0.293945 85.5962 0.293945 82.9507 0.293945 80.9771-0.304443 79.6753-1.50122 78.3735-2.698 77.7227-4.53516 77.7227-7.0127L77.7227-18.0146 71.8228-18.0146 71.8228-21.0801 77.7227-21.0801 77.7227-26.875 81.376-27.8198 81.376-21.0801 90.8452-21.0801 90.8452-18.0146 81.376-18.0146 81.376-7.30664C81.376-5.79492 81.7784-4.66463 82.5833-3.91577 83.3881-3.16691 84.5744-2.79248 86.1421-2.79248 86.814-2.79248 87.5488-2.84497 88.3467-2.94995 89.1445-3.05493 89.9774-3.2194 90.8452-3.44336ZM115.374-10.918C115.374-9.04232 115.112-7.40462 114.587-6.00488 114.062-4.60514 113.337-3.44336 112.414-2.51953 111.49-1.5957 110.398-0.902832 109.138-0.440918 107.878 0.0209961 106.514 0.251953 105.044 0.251953 104.372 0.251953 103.704 0.21696 103.039 0.146973 102.374 0.0769857 101.699-0.0419922 101.013-0.209961L101.013 8.6084 97.3594 8.6084 97.3594-21.0801 100.614-21.0801 100.845-17.5527C101.895-18.9945 103.014-20.0058 104.204-20.5867 105.394-21.1676 106.682-21.458 108.067-21.458 109.271-21.458 110.328-21.2061 111.238-20.7021 112.148-20.1982 112.91-19.4879 113.526-18.571 114.142-17.6542 114.604-16.5484 114.912-15.2537 115.22-13.9589 115.374-12.5137 115.374-10.918ZM111.637-10.75C111.637-11.8558 111.556-12.8706 111.395-13.7944 111.234-14.7183 110.979-15.5091 110.629-16.167 110.279-16.8249 109.831-17.3393 109.285-17.7102 108.739-18.0811 108.088-18.2666 107.333-18.2666 106.871-18.2666 106.402-18.1931 105.926-18.0461 105.45-17.8992 104.956-17.6542 104.446-17.3113 103.935-16.9683 103.396-16.5134 102.829-15.9465 102.262-15.3796 101.657-14.6763 101.013-13.8364L101.013-3.61133C101.685-3.33138 102.391-3.11092 103.133-2.94995 103.875-2.78898 104.603-2.7085 105.317-2.7085 107.291-2.7085 108.837-3.37687 109.957-4.71362 111.077-6.05037 111.637-8.0625 111.637-10.75ZM137.551-5.75293C137.551-5.01107 137.425-4.34619 137.173-3.7583 136.921-3.17041 136.578-2.64901 136.145-2.19409 135.711-1.73918 135.207-1.35075 134.633-1.02881 134.059-0.706869 133.447-0.440918 132.796-0.230957 132.145-0.0209961 131.476 0.132975 130.791 0.230957 130.105 0.328939 129.433 0.37793 128.775 0.37793 127.347 0.37793 126.035 0.314941 124.838 0.188965 123.641 0.0629883 122.469-0.139974 121.321-0.419922L121.321-3.7793C122.553-3.42936 123.778-3.16341 124.996-2.98145 126.213-2.79948 127.424-2.7085 128.628-2.7085 130.378-2.7085 131.672-2.94645 132.512-3.42236 133.352-3.89827 133.772-4.57715 133.772-5.45898 133.772-5.83691 133.705-6.17635 133.573-6.47729 133.44-6.77824 133.198-7.06519 132.848-7.33813 132.498-7.61108 131.956-7.89453 131.221-8.18848 130.486-8.48242 129.482-8.81836 128.208-9.19629 127.256-9.47624 126.378-9.79468 125.573-10.1516 124.768-10.5085 124.072-10.932 123.484-11.4219 122.896-11.9118 122.434-12.4857 122.098-13.1436 121.762-13.8014 121.594-14.5783 121.594-15.4741 121.594-16.062 121.731-16.7059 122.004-17.4058 122.277-18.1056 122.742-18.7565 123.4-19.3584 124.058-19.9603 124.947-20.4607 126.066-20.8596 127.186-21.2585 128.586-21.458 130.266-21.458 131.091-21.458 132.008-21.4125 133.016-21.3215 134.024-21.2305 135.074-21.0731 136.166-20.8491L136.166-17.5947C135.018-17.8747 133.929-18.0811 132.901-18.2141 131.872-18.3471 130.979-18.4136 130.224-18.4136 129.314-18.4136 128.547-18.3436 127.925-18.2036 127.302-18.0636 126.798-17.8712 126.413-17.6262 126.028-17.3813 125.751-17.0943 125.583-16.7654 125.416-16.4364 125.332-16.083 125.332-15.7051 125.332-15.3271 125.405-14.9842 125.552-14.6763 125.699-14.3683 125.972-14.0709 126.371-13.7839 126.77-13.497 127.326-13.21 128.04-12.9231 128.754-12.6361 129.685-12.3247 130.833-11.9888 132.078-11.6248 133.128-11.2434 133.982-10.8445 134.836-10.4456 135.529-10.0011 136.061-9.51123 136.592-9.02132 136.974-8.46842 137.205-7.85254 137.436-7.23665 137.551-6.53678 137.551-5.75293ZM152.821-21.458C153.255-21.458 153.668-21.3705 154.06-21.1956 154.451-21.0206 154.794-20.7861 155.088-20.4922 155.382-20.1982 155.617-19.8553 155.792-19.4634 155.967-19.0715 156.054-18.6585 156.054-18.2246 156.054-17.7767 155.967-17.3603 155.792-16.9753 155.617-16.5904 155.382-16.251 155.088-15.957 154.794-15.6631 154.451-15.4321 154.06-15.2642 153.668-15.0962 153.255-15.0122 152.821-15.0122 152.373-15.0122 151.956-15.0962 151.572-15.2642 151.187-15.4321 150.847-15.6631 150.553-15.957 150.259-16.251 150.028-16.5904 149.86-16.9753 149.692-17.3603 149.608-17.7767 149.608-18.2246 149.608-18.6585 149.692-19.0715 149.86-19.4634 150.028-19.8553 150.259-20.1982 150.553-20.4922 150.847-20.7861 151.187-21.0206 151.572-21.1956 151.956-21.3705 152.373-21.458 152.821-21.458ZM152.821-6.06787C153.255-6.06787 153.668-5.98039 154.06-5.80542 154.451-5.63045 154.794-5.396 155.088-5.10205 155.382-4.80811 155.617-4.46517 155.792-4.07324 155.967-3.68131 156.054-3.26839 156.054-2.83447 156.054-2.38656 155.967-1.97013 155.792-1.58521 155.617-1.20028 155.382-0.86084 155.088-0.566895 154.794-0.272949 154.451-0.0419922 154.06 0.125977 153.668 0.293945 153.255 0.37793 152.821 0.37793 152.373 0.37793 151.956 0.293945 151.572 0.125977 151.187-0.0419922 150.847-0.272949 150.553-0.566895 150.259-0.86084 150.028-1.20028 149.86-1.58521 149.692-1.97013 149.608-2.38656 149.608-2.83447 149.608-3.26839 149.692-3.68131 149.86-4.07324 150.028-4.46517 150.259-4.80811 150.553-5.10205 150.847-5.396 151.187-5.63045 151.572-5.80542 151.956-5.98039 152.373-6.06787 152.821-6.06787ZM184.803-29.6675 170.4 4.51416 166.915 4.51416 181.318-29.6675ZM208.303-29.6675 193.9 4.51416 190.415 4.51416 204.818-29.6675ZM234.386-21.0801 231.32 0 226.89 0 223.846-8.81836 223.237-10.96 222.544-8.69238 219.625 0 215.321 0 212.277-21.0801 215.846-21.0801 217.61-6.76074 217.988-3.56934 218.891-6.36182 221.956-15.8311 224.581-15.8311 227.877-6.48779 228.822-3.69531 229.137-6.65576 230.774-21.0801ZM257.886-21.0801 254.82 0 250.39 0 247.346-8.81836 246.737-10.96 246.044-8.69238 243.125 0 238.821 0 235.777-21.0801 239.346-21.0801 241.11-6.76074 241.488-3.56934 242.391-6.36182 245.456-15.8311 248.081-15.8311 251.377-6.48779 252.322-3.69531 252.637-6.65576 254.274-21.0801ZM281.386-21.0801 278.32 0 273.89 0 270.846-8.81836 270.237-10.96 269.544-8.69238 266.625 0 262.321 0 259.277-21.0801 262.846-21.0801 264.61-6.76074 264.988-3.56934 265.891-6.36182 268.956-15.8311 271.581-15.8311 274.877-6.48779 275.822-3.69531 276.137-6.65576 277.774-21.0801ZM293.653-6.61377C294.129-6.61377 294.58-6.52279 295.007-6.34082 295.434-6.15885 295.805-5.9069 296.12-5.58496 296.435-5.26302 296.683-4.88859 296.865-4.46167 297.047-4.03475 297.138-3.57633 297.138-3.08643 297.138-2.61051 297.047-2.1626 296.865-1.74268 296.683-1.32275 296.435-0.955322 296.12-0.640381 295.805-0.325439 295.434-0.0769857 295.007 0.10498 294.58 0.286947 294.129 0.37793 293.653 0.37793 293.163 0.37793 292.708 0.286947 292.288 0.10498 291.868-0.0769857 291.501-0.325439 291.186-0.640381 290.871-0.955322 290.622-1.32275 290.44-1.74268 290.258-2.1626 290.167-2.61051 290.167-3.08643 290.167-3.57633 290.258-4.03475 290.44-4.46167 290.622-4.88859 290.871-5.26302 291.186-5.58496 291.501-5.9069 291.868-6.15885 292.288-6.34082 292.708-6.52279 293.163-6.61377 293.653-6.61377ZM325.551-5.75293C325.551-5.01107 325.425-4.34619 325.173-3.7583 324.921-3.17041 324.578-2.64901 324.145-2.19409 323.711-1.73918 323.207-1.35075 322.633-1.02881 322.059-0.706869 321.447-0.440918 320.796-0.230957 320.145-0.0209961 319.476 0.132975 318.791 0.230957 318.105 0.328939 317.433 0.37793 316.775 0.37793 315.347 0.37793 314.035 0.314941 312.838 0.188965 311.641 0.0629883 310.469-0.139974 309.321-0.419922L309.321-3.7793C310.553-3.42936 311.778-3.16341 312.996-2.98145 314.213-2.79948 315.424-2.7085 316.628-2.7085 318.378-2.7085 319.672-2.94645 320.512-3.42236 321.352-3.89827 321.772-4.57715 321.772-5.45898 321.772-5.83691 321.705-6.17635 321.573-6.47729 321.44-6.77824 321.198-7.06519 320.848-7.33813 320.498-7.61108 319.956-7.89453 319.221-8.18848 318.486-8.48242 317.482-8.81836 316.208-9.19629 315.256-9.47624 314.378-9.79468 313.573-10.1516 312.768-10.5085 312.072-10.932 311.484-11.4219 310.896-11.9118 310.434-12.4857 310.098-13.1436 309.762-13.8014 309.594-14.5783 309.594-15.4741 309.594-16.062 309.731-16.7059 310.004-17.4058 310.277-18.1056 310.742-18.7565 311.4-19.3584 312.058-19.9603 312.947-20.4607 314.066-20.8596 315.186-21.2585 316.586-21.458 318.266-21.458 319.091-21.458 320.008-21.4125 321.016-21.3215 322.024-21.2305 323.074-21.0731 324.166-20.8491L324.166-17.5947C323.018-17.8747 321.929-18.0811 320.901-18.2141 319.872-18.3471 318.979-18.4136 318.224-18.4136 317.314-18.4136 316.547-18.3436 315.925-18.2036 315.302-18.0636 314.798-17.8712 314.413-17.6262 314.028-17.3813 313.751-17.0943 313.583-16.7654 313.416-16.4364 313.332-16.083 313.332-15.7051 313.332-15.3271 313.405-14.9842 313.552-14.6763 313.699-14.3683 313.972-14.0709 314.371-13.7839 314.77-13.497 315.326-13.21 316.04-12.9231 316.754-12.6361 317.685-12.3247 318.833-11.9888 320.078-11.6248 321.128-11.2434 321.982-10.8445 322.836-10.4456 323.529-10.0011 324.061-9.51123 324.592-9.02132 324.974-8.46842 325.205-7.85254 325.436-7.23665 325.551-6.53678 325.551-5.75293ZM350.374-10.918C350.374-9.16829 350.133-7.60408 349.65-6.22534 349.167-4.8466 348.481-3.67782 347.592-2.71899 346.703-1.76017 345.622-1.02531 344.348-0.514404 343.074-0.00349937 341.64 0.251953 340.044 0.251953 338.798 0.251953 337.524 0.132975 336.223-0.10498 334.921-0.342936 333.633-0.720866 332.359-1.23877L332.359-29.6675 336.013-29.6675 336.013-21.5 335.845-17.5947C336.895-19.0085 338.018-20.0058 339.215-20.5867 340.411-21.1676 341.696-21.458 343.067-21.458 344.271-21.458 345.328-21.2061 346.238-20.7021 347.148-20.1982 347.91-19.4879 348.526-18.571 349.142-17.6542 349.604-16.5484 349.912-15.2537 350.22-13.9589 350.374-12.5137 350.374-10.918ZM346.637-10.75C346.637-11.8558 346.556-12.8706 346.395-13.7944 346.234-14.7183 345.979-15.5091 345.629-16.167 345.279-16.8249 344.831-17.3393 344.285-17.7102 343.739-18.0811 343.088-18.2666 342.333-18.2666 341.871-18.2666 341.402-18.1931 340.926-18.0461 340.45-17.8992 339.956-17.6542 339.446-17.3113 338.935-16.9683 338.396-16.5134 337.829-15.9465 337.262-15.3796 336.657-14.6763 336.013-13.8364L336.013-3.61133C336.727-3.33138 337.454-3.11092 338.196-2.94995 338.938-2.78898 339.645-2.7085 340.317-2.7085 341.157-2.7085 341.958-2.84147 342.721-3.10742 343.484-3.37337 344.156-3.81779 344.737-4.44067 345.317-5.06356 345.779-5.8894 346.122-6.91821 346.465-7.94702 346.637-9.22428 346.637-10.75ZM373.874-10.918C373.874-9.16829 373.633-7.60408 373.15-6.22534 372.667-4.8466 371.981-3.67782 371.092-2.71899 370.203-1.76017 369.122-1.02531 367.848-0.514404 366.574-0.00349937 365.14 0.251953 363.544 0.251953 362.298 0.251953 361.024 0.132975 359.723-0.10498 358.421-0.342936 357.133-0.720866 355.859-1.23877L355.859-29.6675 359.513-29.6675 359.513-21.5 359.345-17.5947C360.395-19.0085 361.518-20.0058 362.715-20.5867 363.911-21.1676 365.196-21.458 366.567-21.458 367.771-21.458 368.828-21.2061 369.738-20.7021 370.648-20.1982 371.41-19.4879 372.026-18.571 372.642-17.6542 373.104-16.5484 373.412-15.2537 373.72-13.9589 373.874-12.5137 373.874-10.918ZM370.137-10.75C370.137-11.8558 370.056-12.8706 369.895-13.7944 369.734-14.7183 369.479-15.5091 369.129-16.167 368.779-16.8249 368.331-17.3393 367.785-17.7102 367.239-18.0811 366.588-18.2666 365.833-18.2666 365.371-18.2666 364.902-18.1931 364.426-18.0461 363.95-17.8992 363.456-17.6542 362.946-17.3113 362.435-16.9683 361.896-16.5134 361.329-15.9465 360.762-15.3796 360.157-14.6763 359.513-13.8364L359.513-3.61133C360.227-3.33138 360.954-3.11092 361.696-2.94995 362.438-2.78898 363.145-2.7085 363.817-2.7085 364.657-2.7085 365.458-2.84147 366.221-3.10742 366.984-3.37337 367.656-3.81779 368.237-4.44067 368.817-5.06356 369.279-5.8894 369.622-6.91821 369.965-7.94702 370.137-9.22428 370.137-10.75ZM387.653-6.61377C388.129-6.61377 388.58-6.52279 389.007-6.34082 389.434-6.15885 389.805-5.9069 390.12-5.58496 390.435-5.26302 390.683-4.88859 390.865-4.46167 391.047-4.03475 391.138-3.57633 391.138-3.08643 391.138-2.61051 391.047-2.1626 390.865-1.74268 390.683-1.32275 390.435-0.955322 390.12-0.640381 389.805-0.325439 389.434-0.0769857 389.007 0.10498 388.58 0.286947 388.129 0.37793 387.653 0.37793 387.163 0.37793 386.708 0.286947 386.288 0.10498 385.868-0.0769857 385.501-0.325439 385.186-0.640381 384.871-0.955322 384.622-1.32275 384.44-1.74268 384.258-2.1626 384.167-2.61051 384.167-3.08643 384.167-3.57633 384.258-4.03475 384.44-4.46167 384.622-4.88859 384.871-5.26302 385.186-5.58496 385.501-5.9069 385.868-6.15885 386.288-6.34082 386.708-6.52279 387.163-6.61377 387.653-6.61377ZM419.236-0.776855C418.284-0.412923 417.308-0.143473 416.307 0.0314941 415.307 0.206462 414.274 0.293945 413.21 0.293945 409.879 0.293945 407.314-0.608887 405.515-2.41455 403.717-4.22021 402.817-6.85872 402.817-10.3301 402.817-11.9958 403.076-13.5075 403.594-14.8652 404.112-16.223 404.84-17.3848 405.778-18.3506 406.716-19.3164 407.835-20.0618 409.137-20.5867 410.439-21.1116 411.874-21.374 413.441-21.374 414.533-21.374 415.555-21.297 416.507-21.1431 417.459-20.9891 418.368-20.7371 419.236-20.3872L419.236-16.9019C418.326-17.3778 417.399-17.7242 416.454-17.9412 415.509-18.1581 414.533-18.2666 413.525-18.2666 412.588-18.2666 411.702-18.0881 410.869-17.7312 410.036-17.3743 409.305-16.8599 408.675-16.188 408.045-15.5161 407.548-14.6973 407.185-13.7314 406.821-12.7656 406.639-11.6738 406.639-10.4561 406.639-7.90853 407.258-6.00138 408.497-4.73462 409.736-3.46785 411.454-2.83447 413.651-2.83447 414.645-2.83447 415.607-2.94645 416.538-3.17041 417.469-3.39437 418.368-3.73031 419.236-4.17822ZM443.303 0 439.65 0 439.65-13.4585C439.65-15.0822 439.345-16.2965 438.737-17.1013 438.128-17.9062 437.256-18.3086 436.123-18.3086 435.633-18.3086 435.174-18.2421 434.747-18.1091 434.32-17.9762 433.876-17.7452 433.414-17.4163 432.952-17.0873 432.448-16.6429 431.902-16.083 431.356-15.5231 430.727-14.8232 430.013-13.9834L430.013 0 426.359 0 426.359-29.6675 430.013-29.6675 430.013-21.0801 429.887-17.7627C430.461-18.4486 431.024-19.026 431.577-19.4949 432.13-19.9638 432.683-20.3452 433.236-20.6392 433.788-20.9331 434.352-21.1431 434.926-21.269 435.5-21.395 436.095-21.458 436.71-21.458 438.81-21.458 440.434-20.8176 441.582-19.5369 442.729-18.2561 443.303-16.328 443.303-13.7524ZM466.803-29.6675 452.4 4.51416 448.915 4.51416 463.318-29.6675ZM480.057-29.6675 479.469-19.8203 476.026-19.8203 475.417-29.6675ZM488.225-29.6675 487.637-19.8203 484.193-19.8203 483.584-29.6675Z" fill="#CE9178" transform="translate(220.806 60)" />
                <path d="M4.38818-20.8911 6.65576-23.2217 20.7651-11.4429 6.65576 0.335938 4.38818-1.97363 15.8311-11.4009Z" fill="#808080" transform="translate(714.306 60)" />
                <path d="M20.3032 0 16.6499 0 16.6499-13.4585C16.6499-15.0822 16.3455-16.2965 15.7366-17.1013 15.1277-17.9062 14.2563-18.3086 13.1226-18.3086 12.6326-18.3086 12.1742-18.2421 11.7473-18.1091 11.3204-17.9762 10.876-17.7452 10.4141-17.4163 9.95215-17.0873 9.44824-16.6429 8.90234-16.083 8.35645-15.5231 7.72656-14.8232 7.0127-13.9834L7.0127 0 3.35938 0 3.35938-29.6675 7.0127-29.6675 7.0127-21.0801 6.88672-17.7627C7.46061-18.4486 8.02401-19.026 8.5769-19.4949 9.1298-19.9638 9.6827-20.3452 10.2356-20.6392 10.7885-20.9331 11.3519-21.1431 11.9258-21.269 12.4997-21.395 13.0946-21.458 13.7104-21.458 15.8101-21.458 17.4338-20.8176 18.5815-19.5369 19.7293-18.2561 20.3032-16.328 20.3032-13.7524ZM45.21-10.708C45.21-9.07031 44.979-7.56909 44.5171-6.20435 44.0552-4.8396 43.3903-3.67082 42.5225-2.698 41.6546-1.72518 40.5978-0.96932 39.3521-0.43042 38.1063 0.10848 36.6925 0.37793 35.1108 0.37793 33.5991 0.37793 32.2449 0.143473 31.0481-0.325439 29.8513-0.794352 28.8365-1.48372 28.0037-2.39355 27.1708-3.30339 26.5339-4.43018 26.093-5.77393 25.6521-7.11768 25.4316-8.66439 25.4316-10.4141 25.4316-12.0518 25.6626-13.546 26.1245-14.8967 26.5864-16.2475 27.2513-17.4093 28.1191-18.3821 28.987-19.3549 30.0438-20.1108 31.2896-20.6497 32.5353-21.1886 33.9491-21.458 35.5308-21.458 37.0425-21.458 38.3967-21.2236 39.5935-20.7546 40.7903-20.2857 41.8051-19.5999 42.6379-18.697 43.4708-17.7942 44.1077-16.6709 44.5486-15.3271 44.9895-13.9834 45.21-12.4437 45.21-10.708ZM41.4727-10.54C41.4727-11.8418 41.3292-12.9791 41.0422-13.9519 40.7553-14.9247 40.3459-15.7366 39.814-16.3875 39.2821-17.0383 38.6347-17.5282 37.8718-17.8572 37.109-18.1861 36.2586-18.3506 35.3208-18.3506 34.229-18.3506 33.2947-18.1371 32.5178-17.7102 31.741-17.2833 31.1041-16.7129 30.6072-15.999 30.1103-15.2852 29.7463-14.4558 29.5154-13.511 29.2844-12.5662 29.1689-11.5758 29.1689-10.54 29.1689-9.23828 29.3124-8.09749 29.5994-7.11768 29.8863-6.13786 30.2957-5.32251 30.8276-4.67163 31.3595-4.02075 32.0034-3.53084 32.7593-3.2019 33.5151-2.87297 34.369-2.7085 35.3208-2.7085 36.4126-2.7085 37.3469-2.92196 38.1238-3.34888 38.9006-3.7758 39.5375-4.34619 40.0344-5.06006 40.5313-5.77393 40.8953-6.60327 41.1262-7.5481 41.3572-8.49292 41.4727-9.49023 41.4727-10.54ZM65.3926 0 65.3926-15.1382C65.3926-15.7961 65.3681-16.335 65.3191-16.7549 65.2701-17.1748 65.1931-17.5072 65.0881-17.7522 64.9832-17.9972 64.8502-18.1686 64.6892-18.2666 64.5282-18.3646 64.3288-18.4136 64.0908-18.4136 63.8109-18.4136 63.5519-18.3296 63.314-18.1616 63.076-17.9937 62.8206-17.7207 62.5476-17.3428 62.2747-16.9648 61.9737-16.4644 61.6448-15.8416 61.3158-15.2187 60.9274-14.4523 60.4795-13.5425L60.4795 0 57.1411 0 57.1411-14.7393C57.1411-15.5091 57.1166-16.132 57.0676-16.6079 57.0186-17.0838 56.9416-17.4548 56.8367-17.7207 56.7317-17.9867 56.5952-18.1686 56.4272-18.2666 56.2593-18.3646 56.0563-18.4136 55.8184-18.4136 55.5664-18.4136 55.3284-18.3436 55.1045-18.2036 54.8805-18.0636 54.6321-17.8117 54.3591-17.4478 54.0862-17.0838 53.7817-16.5869 53.4458-15.957 53.1099-15.3271 52.7109-14.5223 52.249-13.5425L52.249 0 48.8896 0 48.8896-21.0801 51.6821-21.0801 51.8501-17.0698C52.214-17.8677 52.5675-18.5465 52.9104-19.1064 53.2533-19.6663 53.6068-20.1178 53.9707-20.4607 54.3346-20.8036 54.7231-21.0556 55.136-21.2166 55.5489-21.3775 56.0073-21.458 56.5112-21.458 57.645-21.458 58.5059-21.0871 59.0938-20.3452 59.6816-19.6034 59.9756-18.4556 59.9756-16.9019 60.3115-17.6297 60.6405-18.2771 60.9624-18.844 61.2843-19.4109 61.6308-19.8868 62.0017-20.2717 62.3726-20.6567 62.7821-20.9506 63.23-21.1536 63.6779-21.3565 64.1958-21.458 64.7837-21.458 67.4292-21.458 68.752-19.4214 68.752-15.3481L68.752 0ZM91.6641-11.6528C91.6641-11.1349 91.6571-10.701 91.6431-10.3511 91.6291-10.0011 91.6081-9.6722 91.5801-9.36426L76.7778-9.36426C76.7778-7.20866 77.3797-5.55347 78.5835-4.39868 79.7873-3.2439 81.5229-2.6665 83.7905-2.6665 84.4064-2.6665 85.0223-2.691 85.6382-2.73999 86.2541-2.78898 86.849-2.85547 87.4229-2.93945 87.9967-3.02344 88.5461-3.11792 89.071-3.2229 89.5959-3.32788 90.0824-3.44336 90.5303-3.56934L90.5303-0.566895C89.5365-0.286947 88.4132-0.0594889 87.1604 0.115479 85.9076 0.290446 84.6094 0.37793 83.2656 0.37793 81.46 0.37793 79.9062 0.132975 78.6045-0.356934 77.3027-0.846842 76.2354-1.55721 75.4026-2.48804 74.5697-3.41886 73.9539-4.55965 73.5549-5.9104 73.156-7.26115 72.9565-8.79036 72.9565-10.498 72.9565-11.9818 73.17-13.385 73.5969-14.7078 74.0238-16.0305 74.6467-17.1923 75.4656-18.1931 76.2844-19.1939 77.2887-19.9883 78.4785-20.5762 79.6683-21.1641 81.019-21.458 82.5308-21.458 84.0005-21.458 85.3022-21.2271 86.436-20.7651 87.5698-20.3032 88.5251-19.6488 89.302-18.802 90.0789-17.9552 90.6667-16.9263 91.0657-15.7156 91.4646-14.5048 91.6641-13.1506 91.6641-11.6528ZM87.8638-12.1777C87.9058-13.1156 87.8148-13.9729 87.5908-14.7498 87.3669-15.5266 87.0204-16.195 86.5515-16.7549 86.0826-17.3148 85.4982-17.7522 84.7983-18.0671 84.0985-18.3821 83.2866-18.5396 82.3628-18.5396 81.5649-18.5396 80.8371-18.3856 80.1792-18.0776 79.5213-17.7697 78.9544-17.3358 78.4785-16.7759 78.0026-16.216 77.6177-15.5441 77.3237-14.7603 77.0298-13.9764 76.8478-13.1156 76.7778-12.1777Z" fill="#D4D4D4" transform="translate(126.806 124)" />
                <path d="M19.2744-1.97363 16.9858 0.335938 2.87646-11.4429 16.9858-23.2217 19.2744-20.8911 7.83154-11.4849ZM43.8032-29.6675 29.3999 4.51416 25.9146 4.51416 40.3179-29.6675Z" fill="#808080" transform="translate(32.8058 189)" />
                <path d="M16.9019 0 16.8179-2.83447C15.6701-1.70068 14.5048-0.881836 13.322-0.37793 12.1392 0.125977 10.897 0.37793 9.59521 0.37793 8.39144 0.37793 7.36263 0.223958 6.50879-0.0839844 5.65495-0.391927 4.95158-0.815348 4.39868-1.35425 3.84578-1.89315 3.43986-2.52653 3.18091-3.25439 2.92196-3.98226 2.79248-4.77311 2.79248-5.62695 2.79248-7.74056 3.57983-9.39575 5.15454-10.5925 6.72925-11.7893 9.05631-12.3877 12.1357-12.3877L16.5029-12.3877 16.5029-14.2354C16.5029-15.4811 16.104-16.4784 15.3062-17.2273 14.5083-17.9762 13.2905-18.3506 11.6528-18.3506 10.4631-18.3506 9.29077-18.2176 8.13599-17.9517 6.9812-17.6857 5.78792-17.3078 4.55615-16.8179L4.55615-20.1143C5.01807-20.2822 5.53247-20.4467 6.09937-20.6077 6.66626-20.7686 7.26465-20.9121 7.89453-21.0381 8.52441-21.1641 9.18229-21.2655 9.86816-21.3425 10.554-21.4195 11.2469-21.458 11.9468-21.458 13.2205-21.458 14.3683-21.318 15.3901-21.0381 16.4119-20.7581 17.2763-20.3312 17.9832-19.7573 18.69-19.1834 19.2324-18.4626 19.6104-17.5947 19.9883-16.7269 20.1772-15.7051 20.1772-14.5293L20.1772 0ZM16.5029-9.59521 11.8628-9.59521C10.953-9.59521 10.1691-9.50423 9.51123-9.32227 8.85335-9.1403 8.31445-8.88135 7.89453-8.54541 7.47461-8.20947 7.16317-7.80705 6.96021-7.33813 6.75724-6.86922 6.65576-6.34082 6.65576-5.75293 6.65576-5.347 6.71875-4.95858 6.84473-4.58765 6.9707-4.21672 7.17367-3.88778 7.45361-3.60083 7.73356-3.31388 8.09749-3.08643 8.54541-2.91846 8.99333-2.75049 9.53922-2.6665 10.1831-2.6665 11.0229-2.6665 11.9853-2.92196 13.0701-3.43286 14.1549-3.94377 15.2992-4.75212 16.5029-5.85791Z" fill="#569CD6" transform="translate(79.8058 189)" />
                <path d="M4.38818-20.8911 6.65576-23.2217 20.7651-11.4429 6.65576 0.335938 4.38818-1.97363 15.8311-11.4009Z" fill="#808080" transform="translate(103.306 189)" />
            </g>
        </g>
        <path d="M19.2744-1.97363 16.9858 0.335938 2.87646-11.4429 16.9858-23.2217 19.2744-20.8911 7.83154-11.4849Z" fill="#808080" transform="translate(73.8058 373)" />
        <path d="M16.9019 0 16.8179-2.83447C15.6701-1.70068 14.5048-0.881836 13.322-0.37793 12.1392 0.125977 10.897 0.37793 9.59521 0.37793 8.39144 0.37793 7.36263 0.223958 6.50879-0.0839844 5.65495-0.391927 4.95158-0.815348 4.39868-1.35425 3.84578-1.89315 3.43986-2.52653 3.18091-3.25439 2.92196-3.98226 2.79248-4.77311 2.79248-5.62695 2.79248-7.74056 3.57983-9.39575 5.15454-10.5925 6.72925-11.7893 9.05631-12.3877 12.1357-12.3877L16.5029-12.3877 16.5029-14.2354C16.5029-15.4811 16.104-16.4784 15.3062-17.2273 14.5083-17.9762 13.2905-18.3506 11.6528-18.3506 10.4631-18.3506 9.29077-18.2176 8.13599-17.9517 6.9812-17.6857 5.78792-17.3078 4.55615-16.8179L4.55615-20.1143C5.01807-20.2822 5.53247-20.4467 6.09937-20.6077 6.66626-20.7686 7.26465-20.9121 7.89453-21.0381 8.52441-21.1641 9.18229-21.2655 9.86816-21.3425 10.554-21.4195 11.2469-21.458 11.9468-21.458 13.2205-21.458 14.3683-21.318 15.3901-21.0381 16.4119-20.7581 17.2763-20.3312 17.9832-19.7573 18.69-19.1834 19.2324-18.4626 19.6104-17.5947 19.9883-16.7269 20.1772-15.7051 20.1772-14.5293L20.1772 0ZM16.5029-9.59521 11.8628-9.59521C10.953-9.59521 10.1691-9.50423 9.51123-9.32227 8.85335-9.1403 8.31445-8.88135 7.89453-8.54541 7.47461-8.20947 7.16317-7.80705 6.96021-7.33813 6.75724-6.86922 6.65576-6.34082 6.65576-5.75293 6.65576-5.347 6.71875-4.95858 6.84473-4.58765 6.9707-4.21672 7.17367-3.88778 7.45361-3.60083 7.73356-3.31388 8.09749-3.08643 8.54541-2.91846 8.99333-2.75049 9.53922-2.6665 10.1831-2.6665 11.0229-2.6665 11.9853-2.92196 13.0701-3.43286 14.1549-3.94377 15.2992-4.75212 16.5029-5.85791Z" fill="#569CD6" transform="translate(97.3058 373)" />
        <path d="M20.3032 0 16.6499 0 16.6499-13.4585C16.6499-15.0822 16.3455-16.2965 15.7366-17.1013 15.1277-17.9062 14.2563-18.3086 13.1226-18.3086 12.6326-18.3086 12.1742-18.2421 11.7473-18.1091 11.3204-17.9762 10.876-17.7452 10.4141-17.4163 9.95215-17.0873 9.44824-16.6429 8.90234-16.083 8.35645-15.5231 7.72656-14.8232 7.0127-13.9834L7.0127 0 3.35938 0 3.35938-29.6675 7.0127-29.6675 7.0127-21.0801 6.88672-17.7627C7.46061-18.4486 8.02401-19.026 8.5769-19.4949 9.1298-19.9638 9.6827-20.3452 10.2356-20.6392 10.7885-20.9331 11.3519-21.1431 11.9258-21.269 12.4997-21.395 13.0946-21.458 13.7104-21.458 15.8101-21.458 17.4338-20.8176 18.5815-19.5369 19.7293-18.2561 20.3032-16.328 20.3032-13.7524ZM27.7202-21.0801 31.0586-21.0801 31.1636-17.1958C32.4093-18.6935 33.6376-19.7783 34.8484-20.4502 36.0592-21.1221 37.2804-21.458 38.5122-21.458 40.6958-21.458 42.351-20.7511 43.4778-19.3374 44.6046-17.9237 45.126-15.8241 45.042-13.0386L41.3467-13.0386C41.3887-14.8862 41.1192-16.2265 40.5383-17.0593 39.9574-17.8922 39.1071-18.3086 37.9873-18.3086 37.4974-18.3086 37.004-18.2211 36.5071-18.0461 36.0102-17.8712 35.4993-17.5912 34.9744-17.2063 34.4495-16.8214 33.8931-16.328 33.3052-15.7261 32.7173-15.1242 32.0874-14.3963 31.4155-13.5425L31.4155 0 27.7202 0ZM68.1641-11.6528C68.1641-11.1349 68.1571-10.701 68.1431-10.3511 68.1291-10.0011 68.1081-9.6722 68.0801-9.36426L53.2778-9.36426C53.2778-7.20866 53.8797-5.55347 55.0835-4.39868 56.2873-3.2439 58.0229-2.6665 60.2905-2.6665 60.9064-2.6665 61.5223-2.691 62.1382-2.73999 62.7541-2.78898 63.349-2.85547 63.9229-2.93945 64.4967-3.02344 65.0461-3.11792 65.571-3.2229 66.0959-3.32788 66.5824-3.44336 67.0303-3.56934L67.0303-0.566895C66.0365-0.286947 64.9132-0.0594889 63.6604 0.115479 62.4076 0.290446 61.1094 0.37793 59.7656 0.37793 57.96 0.37793 56.4062 0.132975 55.1045-0.356934 53.8027-0.846842 52.7354-1.55721 51.9026-2.48804 51.0697-3.41886 50.4539-4.55965 50.0549-5.9104 49.656-7.26115 49.4565-8.79036 49.4565-10.498 49.4565-11.9818 49.67-13.385 50.0969-14.7078 50.5238-16.0305 51.1467-17.1923 51.9656-18.1931 52.7844-19.1939 53.7887-19.9883 54.9785-20.5762 56.1683-21.1641 57.519-21.458 59.0308-21.458 60.5005-21.458 61.8022-21.2271 62.936-20.7651 64.0698-20.3032 65.0251-19.6488 65.802-18.802 66.5789-17.9552 67.1667-16.9263 67.5657-15.7156 67.9646-14.5048 68.1641-13.1506 68.1641-11.6528ZM64.3638-12.1777C64.4058-13.1156 64.3148-13.9729 64.0908-14.7498 63.8669-15.5266 63.5204-16.195 63.0515-16.7549 62.5826-17.3148 61.9982-17.7522 61.2983-18.0671 60.5985-18.3821 59.7866-18.5396 58.8628-18.5396 58.0649-18.5396 57.3371-18.3856 56.6792-18.0776 56.0213-17.7697 55.4544-17.3358 54.9785-16.7759 54.5026-16.216 54.1177-15.5441 53.8237-14.7603 53.5298-13.9764 53.3478-13.1156 53.2778-12.1777ZM92.5669-26.2661C90.6492-26.672 88.9976-26.875 87.6118-26.875 84.3224-26.875 82.6777-25.1533 82.6777-21.71L82.6777-18.0146 91.916-18.0146 91.916-14.9702 82.6777-14.9702 82.6777 0 78.9614 0 78.9614-14.9702 72.1797-14.9702 72.1797-18.0146 78.9614-18.0146 78.9614-21.5C78.9614-27.113 81.8869-29.9194 87.7378-29.9194 89.1935-29.9194 90.8032-29.7515 92.5669-29.4155Z" fill="#9CDCFE" transform="translate(144.306 373)" />
        <path d="M20.8491-13.5635 2.79248-13.5635 2.79248-16.6499 20.8491-16.6499ZM20.8491-6.25684 2.79248-6.25684 2.79248-9.34326 20.8491-9.34326Z" fill="#D4D4D4" transform="translate(238.306 373)" />
        <path d="M10.0571-29.6675 9.46924-19.8203 6.02588-19.8203 5.41699-29.6675ZM18.2246-29.6675 17.6367-19.8203 14.1934-19.8203 13.5845-29.6675ZM43.8032 0 40.1499 0 40.1499-13.4585C40.1499-15.0822 39.8455-16.2965 39.2366-17.1013 38.6277-17.9062 37.7563-18.3086 36.6226-18.3086 36.1326-18.3086 35.6742-18.2421 35.2473-18.1091 34.8204-17.9762 34.376-17.7452 33.9141-17.4163 33.4521-17.0873 32.9482-16.6429 32.4023-16.083 31.8564-15.5231 31.2266-14.8232 30.5127-13.9834L30.5127 0 26.8594 0 26.8594-29.6675 30.5127-29.6675 30.5127-21.0801 30.3867-17.7627C30.9606-18.4486 31.524-19.026 32.0769-19.4949 32.6298-19.9638 33.1827-20.3452 33.7356-20.6392 34.2885-20.9331 34.8519-21.1431 35.4258-21.269 35.9997-21.395 36.5946-21.458 37.2104-21.458 39.3101-21.458 40.9338-20.8176 42.0815-19.5369 43.2293-18.2561 43.8032-16.328 43.8032-13.7524ZM67.3452-0.293945C66.5194-0.0839844 65.6655 0.0664876 64.7837 0.157471 63.9019 0.248454 63.006 0.293945 62.0962 0.293945 59.4507 0.293945 57.477-0.304443 56.1753-1.50122 54.8735-2.698 54.2227-4.53516 54.2227-7.0127L54.2227-18.0146 48.3228-18.0146 48.3228-21.0801 54.2227-21.0801 54.2227-26.875 57.876-27.8198 57.876-21.0801 67.3452-21.0801 67.3452-18.0146 57.876-18.0146 57.876-7.30664C57.876-5.79492 58.2784-4.66463 59.0833-3.91577 59.8881-3.16691 61.0744-2.79248 62.6421-2.79248 63.314-2.79248 64.0488-2.84497 64.8467-2.94995 65.6445-3.05493 66.4774-3.2194 67.3452-3.44336ZM90.8452-0.293945C90.0194-0.0839844 89.1655 0.0664876 88.2837 0.157471 87.4019 0.248454 86.506 0.293945 85.5962 0.293945 82.9507 0.293945 80.9771-0.304443 79.6753-1.50122 78.3735-2.698 77.7227-4.53516 77.7227-7.0127L77.7227-18.0146 71.8228-18.0146 71.8228-21.0801 77.7227-21.0801 77.7227-26.875 81.376-27.8198 81.376-21.0801 90.8452-21.0801 90.8452-18.0146 81.376-18.0146 81.376-7.30664C81.376-5.79492 81.7784-4.66463 82.5833-3.91577 83.3881-3.16691 84.5744-2.79248 86.1421-2.79248 86.814-2.79248 87.5488-2.84497 88.3467-2.94995 89.1445-3.05493 89.9774-3.2194 90.8452-3.44336ZM115.374-10.918C115.374-9.04232 115.112-7.40462 114.587-6.00488 114.062-4.60514 113.337-3.44336 112.414-2.51953 111.49-1.5957 110.398-0.902832 109.138-0.440918 107.878 0.0209961 106.514 0.251953 105.044 0.251953 104.372 0.251953 103.704 0.21696 103.039 0.146973 102.374 0.0769857 101.699-0.0419922 101.013-0.209961L101.013 8.6084 97.3594 8.6084 97.3594-21.0801 100.614-21.0801 100.845-17.5527C101.895-18.9945 103.014-20.0058 104.204-20.5867 105.394-21.1676 106.682-21.458 108.067-21.458 109.271-21.458 110.328-21.2061 111.238-20.7021 112.148-20.1982 112.91-19.4879 113.526-18.571 114.142-17.6542 114.604-16.5484 114.912-15.2537 115.22-13.9589 115.374-12.5137 115.374-10.918ZM111.637-10.75C111.637-11.8558 111.556-12.8706 111.395-13.7944 111.234-14.7183 110.979-15.5091 110.629-16.167 110.279-16.8249 109.831-17.3393 109.285-17.7102 108.739-18.0811 108.088-18.2666 107.333-18.2666 106.871-18.2666 106.402-18.1931 105.926-18.0461 105.45-17.8992 104.956-17.6542 104.446-17.3113 103.935-16.9683 103.396-16.5134 102.829-15.9465 102.262-15.3796 101.657-14.6763 101.013-13.8364L101.013-3.61133C101.685-3.33138 102.391-3.11092 103.133-2.94995 103.875-2.78898 104.603-2.7085 105.317-2.7085 107.291-2.7085 108.837-3.37687 109.957-4.71362 111.077-6.05037 111.637-8.0625 111.637-10.75ZM137.551-5.75293C137.551-5.01107 137.425-4.34619 137.173-3.7583 136.921-3.17041 136.578-2.64901 136.145-2.19409 135.711-1.73918 135.207-1.35075 134.633-1.02881 134.059-0.706869 133.447-0.440918 132.796-0.230957 132.145-0.0209961 131.476 0.132975 130.791 0.230957 130.105 0.328939 129.433 0.37793 128.775 0.37793 127.347 0.37793 126.035 0.314941 124.838 0.188965 123.641 0.0629883 122.469-0.139974 121.321-0.419922L121.321-3.7793C122.553-3.42936 123.778-3.16341 124.996-2.98145 126.213-2.79948 127.424-2.7085 128.628-2.7085 130.378-2.7085 131.672-2.94645 132.512-3.42236 133.352-3.89827 133.772-4.57715 133.772-5.45898 133.772-5.83691 133.705-6.17635 133.573-6.47729 133.44-6.77824 133.198-7.06519 132.848-7.33813 132.498-7.61108 131.956-7.89453 131.221-8.18848 130.486-8.48242 129.482-8.81836 128.208-9.19629 127.256-9.47624 126.378-9.79468 125.573-10.1516 124.768-10.5085 124.072-10.932 123.484-11.4219 122.896-11.9118 122.434-12.4857 122.098-13.1436 121.762-13.8014 121.594-14.5783 121.594-15.4741 121.594-16.062 121.731-16.7059 122.004-17.4058 122.277-18.1056 122.742-18.7565 123.4-19.3584 124.058-19.9603 124.947-20.4607 126.066-20.8596 127.186-21.2585 128.586-21.458 130.266-21.458 131.091-21.458 132.008-21.4125 133.016-21.3215 134.024-21.2305 135.074-21.0731 136.166-20.8491L136.166-17.5947C135.018-17.8747 133.929-18.0811 132.901-18.2141 131.872-18.3471 130.979-18.4136 130.224-18.4136 129.314-18.4136 128.547-18.3436 127.925-18.2036 127.302-18.0636 126.798-17.8712 126.413-17.6262 126.028-17.3813 125.751-17.0943 125.583-16.7654 125.416-16.4364 125.332-16.083 125.332-15.7051 125.332-15.3271 125.405-14.9842 125.552-14.6763 125.699-14.3683 125.972-14.0709 126.371-13.7839 126.77-13.497 127.326-13.21 128.04-12.9231 128.754-12.6361 129.685-12.3247 130.833-11.9888 132.078-11.6248 133.128-11.2434 133.982-10.8445 134.836-10.4456 135.529-10.0011 136.061-9.51123 136.592-9.02132 136.974-8.46842 137.205-7.85254 137.436-7.23665 137.551-6.53678 137.551-5.75293ZM152.821-21.458C153.255-21.458 153.668-21.3705 154.06-21.1956 154.451-21.0206 154.794-20.7861 155.088-20.4922 155.382-20.1982 155.617-19.8553 155.792-19.4634 155.967-19.0715 156.054-18.6585 156.054-18.2246 156.054-17.7767 155.967-17.3603 155.792-16.9753 155.617-16.5904 155.382-16.251 155.088-15.957 154.794-15.6631 154.451-15.4321 154.06-15.2642 153.668-15.0962 153.255-15.0122 152.821-15.0122 152.373-15.0122 151.956-15.0962 151.572-15.2642 151.187-15.4321 150.847-15.6631 150.553-15.957 150.259-16.251 150.028-16.5904 149.86-16.9753 149.692-17.3603 149.608-17.7767 149.608-18.2246 149.608-18.6585 149.692-19.0715 149.86-19.4634 150.028-19.8553 150.259-20.1982 150.553-20.4922 150.847-20.7861 151.187-21.0206 151.572-21.1956 151.956-21.3705 152.373-21.458 152.821-21.458ZM152.821-6.06787C153.255-6.06787 153.668-5.98039 154.06-5.80542 154.451-5.63045 154.794-5.396 155.088-5.10205 155.382-4.80811 155.617-4.46517 155.792-4.07324 155.967-3.68131 156.054-3.26839 156.054-2.83447 156.054-2.38656 155.967-1.97013 155.792-1.58521 155.617-1.20028 155.382-0.86084 155.088-0.566895 154.794-0.272949 154.451-0.0419922 154.06 0.125977 153.668 0.293945 153.255 0.37793 152.821 0.37793 152.373 0.37793 151.956 0.293945 151.572 0.125977 151.187-0.0419922 150.847-0.272949 150.553-0.566895 150.259-0.86084 150.028-1.20028 149.86-1.58521 149.692-1.97013 149.608-2.38656 149.608-2.83447 149.608-3.26839 149.692-3.68131 149.86-4.07324 150.028-4.46517 150.259-4.80811 150.553-5.10205 150.847-5.396 151.187-5.63045 151.572-5.80542 151.956-5.98039 152.373-6.06787 152.821-6.06787ZM184.803-29.6675 170.4 4.51416 166.915 4.51416 181.318-29.6675ZM208.303-29.6675 193.9 4.51416 190.415 4.51416 204.818-29.6675ZM234.386-21.0801 231.32 0 226.89 0 223.846-8.81836 223.237-10.96 222.544-8.69238 219.625 0 215.321 0 212.277-21.0801 215.846-21.0801 217.61-6.76074 217.988-3.56934 218.891-6.36182 221.956-15.8311 224.581-15.8311 227.877-6.48779 228.822-3.69531 229.137-6.65576 230.774-21.0801ZM257.886-21.0801 254.82 0 250.39 0 247.346-8.81836 246.737-10.96 246.044-8.69238 243.125 0 238.821 0 235.777-21.0801 239.346-21.0801 241.11-6.76074 241.488-3.56934 242.391-6.36182 245.456-15.8311 248.081-15.8311 251.377-6.48779 252.322-3.69531 252.637-6.65576 254.274-21.0801ZM281.386-21.0801 278.32 0 273.89 0 270.846-8.81836 270.237-10.96 269.544-8.69238 266.625 0 262.321 0 259.277-21.0801 262.846-21.0801 264.61-6.76074 264.988-3.56934 265.891-6.36182 268.956-15.8311 271.581-15.8311 274.877-6.48779 275.822-3.69531 276.137-6.65576 277.774-21.0801ZM293.653-6.61377C294.129-6.61377 294.58-6.52279 295.007-6.34082 295.434-6.15885 295.805-5.9069 296.12-5.58496 296.435-5.26302 296.683-4.88859 296.865-4.46167 297.047-4.03475 297.138-3.57633 297.138-3.08643 297.138-2.61051 297.047-2.1626 296.865-1.74268 296.683-1.32275 296.435-0.955322 296.12-0.640381 295.805-0.325439 295.434-0.0769857 295.007 0.10498 294.58 0.286947 294.129 0.37793 293.653 0.37793 293.163 0.37793 292.708 0.286947 292.288 0.10498 291.868-0.0769857 291.501-0.325439 291.186-0.640381 290.871-0.955322 290.622-1.32275 290.44-1.74268 290.258-2.1626 290.167-2.61051 290.167-3.08643 290.167-3.57633 290.258-4.03475 290.44-4.46167 290.622-4.88859 290.871-5.26302 291.186-5.58496 291.501-5.9069 291.868-6.15885 292.288-6.34082 292.708-6.52279 293.163-6.61377 293.653-6.61377ZM325.551-5.75293C325.551-5.01107 325.425-4.34619 325.173-3.7583 324.921-3.17041 324.578-2.64901 324.145-2.19409 323.711-1.73918 323.207-1.35075 322.633-1.02881 322.059-0.706869 321.447-0.440918 320.796-0.230957 320.145-0.0209961 319.476 0.132975 318.791 0.230957 318.105 0.328939 317.433 0.37793 316.775 0.37793 315.347 0.37793 314.035 0.314941 312.838 0.188965 311.641 0.0629883 310.469-0.139974 309.321-0.419922L309.321-3.7793C310.553-3.42936 311.778-3.16341 312.996-2.98145 314.213-2.79948 315.424-2.7085 316.628-2.7085 318.378-2.7085 319.672-2.94645 320.512-3.42236 321.352-3.89827 321.772-4.57715 321.772-5.45898 321.772-5.83691 321.705-6.17635 321.573-6.47729 321.44-6.77824 321.198-7.06519 320.848-7.33813 320.498-7.61108 319.956-7.89453 319.221-8.18848 318.486-8.48242 317.482-8.81836 316.208-9.19629 315.256-9.47624 314.378-9.79468 313.573-10.1516 312.768-10.5085 312.072-10.932 311.484-11.4219 310.896-11.9118 310.434-12.4857 310.098-13.1436 309.762-13.8014 309.594-14.5783 309.594-15.4741 309.594-16.062 309.731-16.7059 310.004-17.4058 310.277-18.1056 310.742-18.7565 311.4-19.3584 312.058-19.9603 312.947-20.4607 314.066-20.8596 315.186-21.2585 316.586-21.458 318.266-21.458 319.091-21.458 320.008-21.4125 321.016-21.3215 322.024-21.2305 323.074-21.0731 324.166-20.8491L324.166-17.5947C323.018-17.8747 321.929-18.0811 320.901-18.2141 319.872-18.3471 318.979-18.4136 318.224-18.4136 317.314-18.4136 316.547-18.3436 315.925-18.2036 315.302-18.0636 314.798-17.8712 314.413-17.6262 314.028-17.3813 313.751-17.0943 313.583-16.7654 313.416-16.4364 313.332-16.083 313.332-15.7051 313.332-15.3271 313.405-14.9842 313.552-14.6763 313.699-14.3683 313.972-14.0709 314.371-13.7839 314.77-13.497 315.326-13.21 316.04-12.9231 316.754-12.6361 317.685-12.3247 318.833-11.9888 320.078-11.6248 321.128-11.2434 321.982-10.8445 322.836-10.4456 323.529-10.0011 324.061-9.51123 324.592-9.02132 324.974-8.46842 325.205-7.85254 325.436-7.23665 325.551-6.53678 325.551-5.75293ZM350.374-10.918C350.374-9.16829 350.133-7.60408 349.65-6.22534 349.167-4.8466 348.481-3.67782 347.592-2.71899 346.703-1.76017 345.622-1.02531 344.348-0.514404 343.074-0.00349937 341.64 0.251953 340.044 0.251953 338.798 0.251953 337.524 0.132975 336.223-0.10498 334.921-0.342936 333.633-0.720866 332.359-1.23877L332.359-29.6675 336.013-29.6675 336.013-21.5 335.845-17.5947C336.895-19.0085 338.018-20.0058 339.215-20.5867 340.411-21.1676 341.696-21.458 343.067-21.458 344.271-21.458 345.328-21.2061 346.238-20.7021 347.148-20.1982 347.91-19.4879 348.526-18.571 349.142-17.6542 349.604-16.5484 349.912-15.2537 350.22-13.9589 350.374-12.5137 350.374-10.918ZM346.637-10.75C346.637-11.8558 346.556-12.8706 346.395-13.7944 346.234-14.7183 345.979-15.5091 345.629-16.167 345.279-16.8249 344.831-17.3393 344.285-17.7102 343.739-18.0811 343.088-18.2666 342.333-18.2666 341.871-18.2666 341.402-18.1931 340.926-18.0461 340.45-17.8992 339.956-17.6542 339.446-17.3113 338.935-16.9683 338.396-16.5134 337.829-15.9465 337.262-15.3796 336.657-14.6763 336.013-13.8364L336.013-3.61133C336.727-3.33138 337.454-3.11092 338.196-2.94995 338.938-2.78898 339.645-2.7085 340.317-2.7085 341.157-2.7085 341.958-2.84147 342.721-3.10742 343.484-3.37337 344.156-3.81779 344.737-4.44067 345.317-5.06356 345.779-5.8894 346.122-6.91821 346.465-7.94702 346.637-9.22428 346.637-10.75ZM373.874-10.918C373.874-9.16829 373.633-7.60408 373.15-6.22534 372.667-4.8466 371.981-3.67782 371.092-2.71899 370.203-1.76017 369.122-1.02531 367.848-0.514404 366.574-0.00349937 365.14 0.251953 363.544 0.251953 362.298 0.251953 361.024 0.132975 359.723-0.10498 358.421-0.342936 357.133-0.720866 355.859-1.23877L355.859-29.6675 359.513-29.6675 359.513-21.5 359.345-17.5947C360.395-19.0085 361.518-20.0058 362.715-20.5867 363.911-21.1676 365.196-21.458 366.567-21.458 367.771-21.458 368.828-21.2061 369.738-20.7021 370.648-20.1982 371.41-19.4879 372.026-18.571 372.642-17.6542 373.104-16.5484 373.412-15.2537 373.72-13.9589 373.874-12.5137 373.874-10.918ZM370.137-10.75C370.137-11.8558 370.056-12.8706 369.895-13.7944 369.734-14.7183 369.479-15.5091 369.129-16.167 368.779-16.8249 368.331-17.3393 367.785-17.7102 367.239-18.0811 366.588-18.2666 365.833-18.2666 365.371-18.2666 364.902-18.1931 364.426-18.0461 363.95-17.8992 363.456-17.6542 362.946-17.3113 362.435-16.9683 361.896-16.5134 361.329-15.9465 360.762-15.3796 360.157-14.6763 359.513-13.8364L359.513-3.61133C360.227-3.33138 360.954-3.11092 361.696-2.94995 362.438-2.78898 363.145-2.7085 363.817-2.7085 364.657-2.7085 365.458-2.84147 366.221-3.10742 366.984-3.37337 367.656-3.81779 368.237-4.44067 368.817-5.06356 369.279-5.8894 369.622-6.91821 369.965-7.94702 370.137-9.22428 370.137-10.75ZM387.653-6.61377C388.129-6.61377 388.58-6.52279 389.007-6.34082 389.434-6.15885 389.805-5.9069 390.12-5.58496 390.435-5.26302 390.683-4.88859 390.865-4.46167 391.047-4.03475 391.138-3.57633 391.138-3.08643 391.138-2.61051 391.047-2.1626 390.865-1.74268 390.683-1.32275 390.435-0.955322 390.12-0.640381 389.805-0.325439 389.434-0.0769857 389.007 0.10498 388.58 0.286947 388.129 0.37793 387.653 0.37793 387.163 0.37793 386.708 0.286947 386.288 0.10498 385.868-0.0769857 385.501-0.325439 385.186-0.640381 384.871-0.955322 384.622-1.32275 384.44-1.74268 384.258-2.1626 384.167-2.61051 384.167-3.08643 384.167-3.57633 384.258-4.03475 384.44-4.46167 384.622-4.88859 384.871-5.26302 385.186-5.58496 385.501-5.9069 385.868-6.15885 386.288-6.34082 386.708-6.52279 387.163-6.61377 387.653-6.61377ZM419.236-0.776855C418.284-0.412923 417.308-0.143473 416.307 0.0314941 415.307 0.206462 414.274 0.293945 413.21 0.293945 409.879 0.293945 407.314-0.608887 405.515-2.41455 403.717-4.22021 402.817-6.85872 402.817-10.3301 402.817-11.9958 403.076-13.5075 403.594-14.8652 404.112-16.223 404.84-17.3848 405.778-18.3506 406.716-19.3164 407.835-20.0618 409.137-20.5867 410.439-21.1116 411.874-21.374 413.441-21.374 414.533-21.374 415.555-21.297 416.507-21.1431 417.459-20.9891 418.368-20.7371 419.236-20.3872L419.236-16.9019C418.326-17.3778 417.399-17.7242 416.454-17.9412 415.509-18.1581 414.533-18.2666 413.525-18.2666 412.588-18.2666 411.702-18.0881 410.869-17.7312 410.036-17.3743 409.305-16.8599 408.675-16.188 408.045-15.5161 407.548-14.6973 407.185-13.7314 406.821-12.7656 406.639-11.6738 406.639-10.4561 406.639-7.90853 407.258-6.00138 408.497-4.73462 409.736-3.46785 411.454-2.83447 413.651-2.83447 414.645-2.83447 415.607-2.94645 416.538-3.17041 417.469-3.39437 418.368-3.73031 419.236-4.17822ZM443.303 0 439.65 0 439.65-13.4585C439.65-15.0822 439.345-16.2965 438.737-17.1013 438.128-17.9062 437.256-18.3086 436.123-18.3086 435.633-18.3086 435.174-18.2421 434.747-18.1091 434.32-17.9762 433.876-17.7452 433.414-17.4163 432.952-17.0873 432.448-16.6429 431.902-16.083 431.356-15.5231 430.727-14.8232 430.013-13.9834L430.013 0 426.359 0 426.359-29.6675 430.013-29.6675 430.013-21.0801 429.887-17.7627C430.461-18.4486 431.024-19.026 431.577-19.4949 432.13-19.9638 432.683-20.3452 433.236-20.6392 433.788-20.9331 434.352-21.1431 434.926-21.269 435.5-21.395 436.095-21.458 436.71-21.458 438.81-21.458 440.434-20.8176 441.582-19.5369 442.729-18.2561 443.303-16.328 443.303-13.7524ZM466.803-29.6675 452.4 4.51416 448.915 4.51416 463.318-29.6675ZM480.057-29.6675 479.469-19.8203 476.026-19.8203 475.417-29.6675ZM488.225-29.6675 487.637-19.8203 484.193-19.8203 483.584-29.6675Z" fill="#CE9178" transform="translate(261.806 373)" />
        <path d="M4.38818-20.8911 6.65576-23.2217 20.7651-11.4429 6.65576 0.335938 4.38818-1.97363 15.8311-11.4009Z" fill="#808080" transform="translate(755.306 373)" />
        <path d="M20.3032 0 16.6499 0 16.6499-13.4585C16.6499-15.0822 16.3455-16.2965 15.7366-17.1013 15.1277-17.9062 14.2563-18.3086 13.1226-18.3086 12.6326-18.3086 12.1742-18.2421 11.7473-18.1091 11.3204-17.9762 10.876-17.7452 10.4141-17.4163 9.95215-17.0873 9.44824-16.6429 8.90234-16.083 8.35645-15.5231 7.72656-14.8232 7.0127-13.9834L7.0127 0 3.35938 0 3.35938-29.6675 7.0127-29.6675 7.0127-21.0801 6.88672-17.7627C7.46061-18.4486 8.02401-19.026 8.5769-19.4949 9.1298-19.9638 9.6827-20.3452 10.2356-20.6392 10.7885-20.9331 11.3519-21.1431 11.9258-21.269 12.4997-21.395 13.0946-21.458 13.7104-21.458 15.8101-21.458 17.4338-20.8176 18.5815-19.5369 19.7293-18.2561 20.3032-16.328 20.3032-13.7524ZM45.21-10.708C45.21-9.07031 44.979-7.56909 44.5171-6.20435 44.0552-4.8396 43.3903-3.67082 42.5225-2.698 41.6546-1.72518 40.5978-0.96932 39.3521-0.43042 38.1063 0.10848 36.6925 0.37793 35.1108 0.37793 33.5991 0.37793 32.2449 0.143473 31.0481-0.325439 29.8513-0.794352 28.8365-1.48372 28.0037-2.39355 27.1708-3.30339 26.5339-4.43018 26.093-5.77393 25.6521-7.11768 25.4316-8.66439 25.4316-10.4141 25.4316-12.0518 25.6626-13.546 26.1245-14.8967 26.5864-16.2475 27.2513-17.4093 28.1191-18.3821 28.987-19.3549 30.0438-20.1108 31.2896-20.6497 32.5353-21.1886 33.9491-21.458 35.5308-21.458 37.0425-21.458 38.3967-21.2236 39.5935-20.7546 40.7903-20.2857 41.8051-19.5999 42.6379-18.697 43.4708-17.7942 44.1077-16.6709 44.5486-15.3271 44.9895-13.9834 45.21-12.4437 45.21-10.708ZM41.4727-10.54C41.4727-11.8418 41.3292-12.9791 41.0422-13.9519 40.7553-14.9247 40.3459-15.7366 39.814-16.3875 39.2821-17.0383 38.6347-17.5282 37.8718-17.8572 37.109-18.1861 36.2586-18.3506 35.3208-18.3506 34.229-18.3506 33.2947-18.1371 32.5178-17.7102 31.741-17.2833 31.1041-16.7129 30.6072-15.999 30.1103-15.2852 29.7463-14.4558 29.5154-13.511 29.2844-12.5662 29.1689-11.5758 29.1689-10.54 29.1689-9.23828 29.3124-8.09749 29.5994-7.11768 29.8863-6.13786 30.2957-5.32251 30.8276-4.67163 31.3595-4.02075 32.0034-3.53084 32.7593-3.2019 33.5151-2.87297 34.369-2.7085 35.3208-2.7085 36.4126-2.7085 37.3469-2.92196 38.1238-3.34888 38.9006-3.7758 39.5375-4.34619 40.0344-5.06006 40.5313-5.77393 40.8953-6.60327 41.1262-7.5481 41.3572-8.49292 41.4727-9.49023 41.4727-10.54ZM65.3926 0 65.3926-15.1382C65.3926-15.7961 65.3681-16.335 65.3191-16.7549 65.2701-17.1748 65.1931-17.5072 65.0881-17.7522 64.9832-17.9972 64.8502-18.1686 64.6892-18.2666 64.5282-18.3646 64.3288-18.4136 64.0908-18.4136 63.8109-18.4136 63.5519-18.3296 63.314-18.1616 63.076-17.9937 62.8206-17.7207 62.5476-17.3428 62.2747-16.9648 61.9737-16.4644 61.6448-15.8416 61.3158-15.2187 60.9274-14.4523 60.4795-13.5425L60.4795 0 57.1411 0 57.1411-14.7393C57.1411-15.5091 57.1166-16.132 57.0676-16.6079 57.0186-17.0838 56.9416-17.4548 56.8367-17.7207 56.7317-17.9867 56.5952-18.1686 56.4272-18.2666 56.2593-18.3646 56.0563-18.4136 55.8184-18.4136 55.5664-18.4136 55.3284-18.3436 55.1045-18.2036 54.8805-18.0636 54.6321-17.8117 54.3591-17.4478 54.0862-17.0838 53.7817-16.5869 53.4458-15.957 53.1099-15.3271 52.7109-14.5223 52.249-13.5425L52.249 0 48.8896 0 48.8896-21.0801 51.6821-21.0801 51.8501-17.0698C52.214-17.8677 52.5675-18.5465 52.9104-19.1064 53.2533-19.6663 53.6068-20.1178 53.9707-20.4607 54.3346-20.8036 54.7231-21.0556 55.136-21.2166 55.5489-21.3775 56.0073-21.458 56.5112-21.458 57.645-21.458 58.5059-21.0871 59.0938-20.3452 59.6816-19.6034 59.9756-18.4556 59.9756-16.9019 60.3115-17.6297 60.6405-18.2771 60.9624-18.844 61.2843-19.4109 61.6308-19.8868 62.0017-20.2717 62.3726-20.6567 62.7821-20.9506 63.23-21.1536 63.6779-21.3565 64.1958-21.458 64.7837-21.458 67.4292-21.458 68.752-19.4214 68.752-15.3481L68.752 0ZM91.6641-11.6528C91.6641-11.1349 91.6571-10.701 91.6431-10.3511 91.6291-10.0011 91.6081-9.6722 91.5801-9.36426L76.7778-9.36426C76.7778-7.20866 77.3797-5.55347 78.5835-4.39868 79.7873-3.2439 81.5229-2.6665 83.7905-2.6665 84.4064-2.6665 85.0223-2.691 85.6382-2.73999 86.2541-2.78898 86.849-2.85547 87.4229-2.93945 87.9967-3.02344 88.5461-3.11792 89.071-3.2229 89.5959-3.32788 90.0824-3.44336 90.5303-3.56934L90.5303-0.566895C89.5365-0.286947 88.4132-0.0594889 87.1604 0.115479 85.9076 0.290446 84.6094 0.37793 83.2656 0.37793 81.46 0.37793 79.9062 0.132975 78.6045-0.356934 77.3027-0.846842 76.2354-1.55721 75.4026-2.48804 74.5697-3.41886 73.9539-4.55965 73.5549-5.9104 73.156-7.26115 72.9565-8.79036 72.9565-10.498 72.9565-11.9818 73.17-13.385 73.5969-14.7078 74.0238-16.0305 74.6467-17.1923 75.4656-18.1931 76.2844-19.1939 77.2887-19.9883 78.4785-20.5762 79.6683-21.1641 81.019-21.458 82.5308-21.458 84.0005-21.458 85.3022-21.2271 86.436-20.7651 87.5698-20.3032 88.5251-19.6488 89.302-18.802 90.0789-17.9552 90.6667-16.9263 91.0657-15.7156 91.4646-14.5048 91.6641-13.1506 91.6641-11.6528ZM87.8638-12.1777C87.9058-13.1156 87.8148-13.9729 87.5908-14.7498 87.3669-15.5266 87.0204-16.195 86.5515-16.7549 86.0826-17.3148 85.4982-17.7522 84.7983-18.0671 84.0985-18.3821 83.2866-18.5396 82.3628-18.5396 81.5649-18.5396 80.8371-18.3856 80.1792-18.0776 79.5213-17.7697 78.9544-17.3358 78.4785-16.7759 78.0026-16.216 77.6177-15.5441 77.3237-14.7603 77.0298-13.9764 76.8478-13.1156 76.7778-12.1777Z" fill="#D4D4D4" transform="translate(167.806 437)" />
        <path d="M19.2744-1.97363 16.9858 0.335938 2.87646-11.4429 16.9858-23.2217 19.2744-20.8911 7.83154-11.4849ZM43.8032-29.6675 29.3999 4.51416 25.9146 4.51416 40.3179-29.6675Z" fill="#808080" transform="translate(73.8058 502)" />
        <path d="M16.9019 0 16.8179-2.83447C15.6701-1.70068 14.5048-0.881836 13.322-0.37793 12.1392 0.125977 10.897 0.37793 9.59521 0.37793 8.39144 0.37793 7.36263 0.223958 6.50879-0.0839844 5.65495-0.391927 4.95158-0.815348 4.39868-1.35425 3.84578-1.89315 3.43986-2.52653 3.18091-3.25439 2.92196-3.98226 2.79248-4.77311 2.79248-5.62695 2.79248-7.74056 3.57983-9.39575 5.15454-10.5925 6.72925-11.7893 9.05631-12.3877 12.1357-12.3877L16.5029-12.3877 16.5029-14.2354C16.5029-15.4811 16.104-16.4784 15.3062-17.2273 14.5083-17.9762 13.2905-18.3506 11.6528-18.3506 10.4631-18.3506 9.29077-18.2176 8.13599-17.9517 6.9812-17.6857 5.78792-17.3078 4.55615-16.8179L4.55615-20.1143C5.01807-20.2822 5.53247-20.4467 6.09937-20.6077 6.66626-20.7686 7.26465-20.9121 7.89453-21.0381 8.52441-21.1641 9.18229-21.2655 9.86816-21.3425 10.554-21.4195 11.2469-21.458 11.9468-21.458 13.2205-21.458 14.3683-21.318 15.3901-21.0381 16.4119-20.7581 17.2763-20.3312 17.9832-19.7573 18.69-19.1834 19.2324-18.4626 19.6104-17.5947 19.9883-16.7269 20.1772-15.7051 20.1772-14.5293L20.1772 0ZM16.5029-9.59521 11.8628-9.59521C10.953-9.59521 10.1691-9.50423 9.51123-9.32227 8.85335-9.1403 8.31445-8.88135 7.89453-8.54541 7.47461-8.20947 7.16317-7.80705 6.96021-7.33813 6.75724-6.86922 6.65576-6.34082 6.65576-5.75293 6.65576-5.347 6.71875-4.95858 6.84473-4.58765 6.9707-4.21672 7.17367-3.88778 7.45361-3.60083 7.73356-3.31388 8.09749-3.08643 8.54541-2.91846 8.99333-2.75049 9.53922-2.6665 10.1831-2.6665 11.0229-2.6665 11.9853-2.92196 13.0701-3.43286 14.1549-3.94377 15.2992-4.75212 16.5029-5.85791Z" fill="#569CD6" transform="translate(120.806 502)" />
        <path d="M4.38818-20.8911 6.65576-23.2217 20.7651-11.4429 6.65576 0.335938 4.38818-1.97363 15.8311-11.4009Z" fill="#808080" transform="translate(144.306 502)" />
        <path d="M784 315C792.284 315 799 316.822 799 319.07L799 412.609C799 414.856 805.716 416.678 814 416.678 805.716 416.678 799 418.5 799 420.748L799 517.93C799 520.178 792.284 522 784 522" stroke="#4E67C8" stroke-width="4" stroke-linecap="round" stroke-linejoin="round" stroke-miterlimit="10" fill="none" fill-rule="evenodd" />
        <text fill="#FFFFFF" font-family="Century Gothic,Century Gothic_MSFontService,sans-serif" font-weight="400" font-size="16" transform="translate(824.082 420)">
            Element
            <tspan font-size="16" x="-778.69" y="-152">Opening Tag</tspan>
            <tspan font-size="16" x="-617.514" y="-152">Attribute</tspan>
            <tspan font-size="16" x="-589.896" y="165">InnerText</tspan>
            /
            <tspan font-size="16" x="-588.562" y="184">InnerHtml</tspan>
            <tspan font-size="16" x="-770.274" y="169">Closing Tag</tspan>
        </text>
        <path d="M96 276 101.697 337.455" stroke="#4E67C8" stroke-width="4" stroke-linecap="round" stroke-linejoin="round" stroke-miterlimit="10" fill="none" fill-rule="evenodd" />
        <path d="M0 0 34.0729 61.4547" stroke="#4E67C8" stroke-width="4" stroke-linecap="round" stroke-linejoin="round" stroke-miterlimit="10" fill="none" fill-rule="evenodd" transform="matrix(-1 0 0 1 240.073 276)" />
        <text fill="#FFFFFF" font-family="Century Gothic,Century Gothic_MSFontService,sans-serif" font-weight="400" font-size="16" transform="translate(408.857 268)">
            Attribute
            <tspan font-size="16" x="10.92" y="19">Value</tspan>
        </text>
        <path d="M442 295 442 327.493" stroke="#4E67C8" stroke-width="4" stroke-linecap="round" stroke-linejoin="round" stroke-miterlimit="10" fill="none" fill-rule="evenodd" />
        <path d="M255 455 272.036 564.339" stroke="#4E67C8" stroke-width="4" stroke-linecap="round" stroke-linejoin="round" stroke-miterlimit="10" fill="none" fill-rule="evenodd" />
        <path d="M0 0 21.3761 52.4107" stroke="#4E67C8" stroke-width="4" stroke-linecap="round" stroke-linejoin="round" stroke-miterlimit="10" fill="none" fill-rule="evenodd" transform="matrix(1 0 0 -1 99 568.411)" />
    </g>
</svg>