<svg width="1916" height="1391" xmlns="http://www.w3.org/2000/svg" xmlns:xlink="http://www.w3.org/1999/xlink" overflow="hidden"><defs><clipPath id="clip0"><rect x="792" y="814" width="1916" height="1391"/></clipPath><clipPath id="clip1"><rect x="792" y="618" width="958" height="502"/></clipPath><clipPath id="clip2"><rect x="1749" y="618" width="959" height="502"/></clipPath><clipPath id="clip3"><rect x="792" y="820" width="958" height="502"/></clipPath><clipPath id="clip4"><rect x="1749" y="70" width="959" height="2003"/></clipPath><clipPath id="clip5"><rect x="1749" y="70" width="959" height="2003"/></clipPath><clipPath id="clip6"><rect x="1749" y="70" width="959" height="2003"/></clipPath><clipPath id="clip7"><rect x="792" y="1130" width="958" height="501"/></clipPath><clipPath id="clip8"><rect x="1749" y="379" width="959" height="2003"/></clipPath><clipPath id="clip9"><rect x="1749" y="379" width="959" height="2003"/></clipPath><clipPath id="clip10"><rect x="1749" y="379" width="959" height="2003"/></clipPath><clipPath id="clip11"><rect x="792" y="1403" width="958" height="502"/></clipPath><clipPath id="clip12"><rect x="1749" y="903" width="959" height="1502"/></clipPath><clipPath id="clip13"><rect x="1749" y="903" width="959" height="1502"/></clipPath><clipPath id="clip14"><rect x="1749" y="903" width="959" height="1502"/></clipPath><clipPath id="clip15"><rect x="792" y="1641" width="958" height="501"/></clipPath><clipPath id="clip16"><rect x="1749" y="1140" width="959" height="1503"/></clipPath><clipPath id="clip17"><rect x="1749" y="1140" width="959" height="1503"/></clipPath><clipPath id="clip18"><rect x="792" y="1843" width="958" height="501"/></clipPath><clipPath id="clip19"><rect x="1749" y="1593" width="959" height="1002"/></clipPath><clipPath id="clip20"><rect x="1749" y="1593" width="959" height="1002"/></clipPath></defs><g clip-path="url(#clip0)" transform="translate(-792 -814)"><path d="M792.424 821.706 1749.82 821.706 1749.82 916.474 792.424 916.474Z" fill="#FFFFFF" fill-rule="evenodd"/><path d="M1749.82 821.706 2707.22 821.706 2707.22 916.474 1749.82 916.474Z" fill="#FFFFFF" fill-rule="evenodd"/><path d="M792.424 916.474 1749.82 916.474 1749.82 1225.74 792.424 1225.74Z" fill="#E7E9EB" fill-rule="evenodd"/><path d="M1749.82 916.474 2707.22 916.474 2707.22 1225.74 1749.82 1225.74Z" fill="#E7E9EB" fill-rule="evenodd"/><path d="M792.424 1225.74 1749.82 1225.74 1749.82 1535.01 792.424 1535.01Z" fill="#FFFFFF" fill-rule="evenodd"/><path d="M1749.82 1225.74 2707.22 1225.74 2707.22 1535.01 1749.82 1535.01Z" fill="#FFFFFF" fill-rule="evenodd"/><path d="M792.424 1535.01 1749.82 1535.01 1749.82 1772.78 792.424 1772.78Z" fill="#E7E9EB" fill-rule="evenodd"/><path d="M1749.82 1535.01 2707.22 1535.01 2707.22 1772.78 1749.82 1772.78Z" fill="#E7E9EB" fill-rule="evenodd"/><path d="M792.424 1772.78 1749.82 1772.78 1749.82 2010.55 792.424 2010.55Z" fill="#FFFFFF" fill-rule="evenodd"/><path d="M1749.82 1772.78 2707.22 1772.78 2707.22 2010.55 1749.82 2010.55Z" fill="#FFFFFF" fill-rule="evenodd"/><path d="M792.424 2010.55 1749.82 2010.55 1749.82 2176.81 792.424 2176.81Z" fill="#E7E9EB" fill-rule="evenodd"/><path d="M1749.82 2010.55 2707.22 2010.55 2707.22 2176.81 1749.82 2176.81Z" fill="#E7E9EB" fill-rule="evenodd"/><g clip-path="url(#clip1)"><text font-family="Verdana,Verdana_MSFontService,sans-serif" font-weight="700" font-size="60" transform="matrix(1 0 0 1 815.693 891)">Generic Font Family</text></g><g clip-path="url(#clip2)"><text font-family="Verdana,Verdana_MSFontService,sans-serif" font-weight="700" font-size="60" transform="matrix(1 0 0 1 1773.09 891)">Examples of Font Names</text></g><g clip-path="url(#clip3)"><text font-family="Verdana,Verdana_MSFontService,sans-serif" font-weight="400" font-size="60" transform="matrix(1 0 0 1 815.693 1093)">Serif</text></g><g clip-path="url(#clip4)"><text font-family="Times New Roman,Times New Roman_MSFontService,sans-serif" font-weight="400" font-size="60" transform="matrix(1 0 0 1 1773.09 986)">Times New Roman</text></g><g clip-path="url(#clip5)"><text font-family="Georgia,Georgia_MSFontService,sans-serif" font-weight="400" font-size="60" transform="matrix(1 0 0 1 1773.09 1057)">Georgia</text></g><g clip-path="url(#clip6)"><text font-family="Garamond,Garamond_MSFontService,sans-serif" font-weight="400" font-size="60" transform="matrix(1 0 0 1 1773.09 1127)">Garamond</text></g><g clip-path="url(#clip7)"><text font-family="Verdana,Verdana_MSFontService,sans-serif" font-weight="400" font-size="60" transform="matrix(1 0 0 1 815.693 1403)">Sans</text></g><text font-family="Verdana,Verdana_MSFontService,sans-serif" font-weight="400" font-size="60" transform="matrix(1 0 0 1 960.641 1403)">-<tspan font-size="60" x="26.9271" y="0">serif</tspan></text><g clip-path="url(#clip8)"><text font-family="Arial,Arial_MSFontService,sans-serif" font-weight="400" font-size="60" transform="matrix(1 0 0 1 1773.09 1295)">Arial</text></g><g clip-path="url(#clip9)"><text font-family="Verdana,Verdana_MSFontService,sans-serif" font-weight="400" font-size="60" transform="matrix(1 0 0 1 1773.09 1367)">Verdana</text></g><g clip-path="url(#clip10)"><text font-family="Arial,Arial_MSFontService,sans-serif" font-weight="400" font-size="60" transform="matrix(1 0 0 1 1773.09 1438)">Helvetica</text></g><g clip-path="url(#clip11)"><text font-family="Verdana,Verdana_MSFontService,sans-serif" font-weight="400" font-size="60" transform="matrix(1 0 0 1 815.693 1676)">Monospace</text></g><g clip-path="url(#clip12)"><text font-family="Courier New,Courier New_MSFontService,sans-serif" font-weight="400" font-size="60" transform="matrix(1 0 0 1 1773.09 1601)">Courier New</text></g><g clip-path="url(#clip13)"><text font-family="Lucida Console,Lucida Console_MSFontService,sans-serif" font-weight="400" font-stretch="semi-condensed" font-size="60" transform="matrix(1 0 0 1 1773.09 1675)">Lucida Console</text></g><g clip-path="url(#clip14)"><text font-family="Calibri,Calibri_MSFontService,sans-serif" font-weight="400" font-size="60" transform="matrix(1 0 0 1 1773.09 1746)">Monaco</text></g><g clip-path="url(#clip15)"><text font-family="Verdana,Verdana_MSFontService,sans-serif" font-weight="400" font-size="60" transform="matrix(1 0 0 1 815.693 1914)">Cursive</text></g><g clip-path="url(#clip16)"><text font-family="Brush Script MT,Brush Script MT_MSFontService,sans-serif" font-style="italic" font-weight="400" font-size="60" transform="matrix(1 0 0 1 1773.09 1837)">Brush Script MT</text></g><g clip-path="url(#clip17)"><text font-family="Lucida Handwriting,Lucida Handwriting_MSFontService,sans-serif" font-style="italic" font-weight="400" font-size="60" transform="matrix(1 0 0 1 1773.09 1910)">Lucida Handwriting</text></g><g clip-path="url(#clip18)"><text font-family="Verdana,Verdana_MSFontService,sans-serif" font-weight="400" font-size="60" transform="matrix(1 0 0 1 815.693 2116)">Fantasy</text></g><g clip-path="url(#clip19)"><text font-family="Calibri,Calibri_MSFontService,sans-serif" font-weight="400" font-size="60" transform="matrix(1 0 0 1 1773.09 2078)">Copperplate</text></g><g clip-path="url(#clip20)"><text font-family="Papyrus,Papyrus_MSFontService,sans-serif" font-weight="400" font-size="60" transform="matrix(1 0 0 1 1773.09 2144)">Papyrus</text></g><path d="M1764 949.5C1764 942.596 1769.6 937 1776.5 937 1783.4 937 1789 942.596 1789 949.5 1789 956.404 1783.4 962 1776.5 962 1769.6 962 1764 956.404 1764 949.5Z" stroke="#FF0000" stroke-width="5.72917" stroke-linecap="round" stroke-linejoin="round" stroke-miterlimit="10" fill="none" fill-rule="evenodd"/><path d="M1790 1042.5C1790 1035.6 1795.6 1030 1802.5 1030 1809.4 1030 1815 1035.6 1815 1042.5 1815 1049.4 1809.4 1055 1802.5 1055 1795.6 1055 1790 1049.4 1790 1042.5Z" stroke="#FF0000" stroke-width="5.72917" stroke-linecap="round" stroke-linejoin="round" stroke-miterlimit="10" fill="none" fill-rule="evenodd"/><path d="M1957 1123.5C1957 1116.6 1962.6 1111 1969.5 1111 1976.4 1111 1982 1116.6 1982 1123.5 1982 1130.4 1976.4 1136 1969.5 1136 1962.6 1136 1957 1130.4 1957 1123.5Z" stroke="#FF0000" stroke-width="5.72917" stroke-linecap="round" stroke-linejoin="round" stroke-miterlimit="10" fill="none" fill-rule="evenodd"/><path d="M1763 1291.5C1763 1284.6 1768.6 1279 1775.5 1279 1782.4 1279 1788 1284.6 1788 1291.5 1788 1298.4 1782.4 1304 1775.5 1304 1768.6 1304 1763 1298.4 1763 1291.5Z" stroke="#FF0000" stroke-width="5.72917" stroke-linecap="round" stroke-linejoin="round" stroke-miterlimit="10" fill="none" fill-rule="evenodd"/><path d="M1765 1327.5C1765 1320.6 1770.6 1315 1777.5 1315 1784.4 1315 1790 1320.6 1790 1327.5 1790 1334.4 1784.4 1340 1777.5 1340 1770.6 1340 1765 1334.4 1765 1327.5Z" stroke="#FF0000" stroke-width="5.72917" stroke-linecap="round" stroke-linejoin="round" stroke-miterlimit="10" fill="none" fill-rule="evenodd"/><path d="M1769 1436.5C1769 1429.6 1774.6 1424 1781.5 1424 1788.4 1424 1794 1429.6 1794 1436.5 1794 1443.4 1788.4 1449 1781.5 1449 1774.6 1449 1769 1443.4 1769 1436.5Z" stroke="#FF0000" stroke-width="5.72917" stroke-linecap="round" stroke-linejoin="round" stroke-miterlimit="10" fill="none" fill-rule="evenodd"/></g></svg>